<svg xmlns="http://www.w3.org/2000/svg" width="100" height="40" fill="none" class="header__image">
  <path fill="#FF002B" d="M100 40H0V0h100v40Z"/>
  <path fill="#fff" d="M26.2 27.06c.12 1.39 1.08 2.28 2.51 2.28 1.43 0 2.4-.9 2.48-2.28.08-.76.08-1.58 0-2.35-.06-1.35-1-2.29-2.48-2.29-1.43 0-2.39.9-2.5 2.29-.07.82-.07 1.6 0 2.35Zm-2.1 3.17a4.9 4.9 0 0 1-1-2.65c-.1-1.13-.1-2.24 0-3.37a4.87 4.87 0 0 1 1.72-3.46 5.84 5.84 0 0 1 3.9-1.34h5.52c.8 0 1.43.65 1.43 1.44 0 .8-.64 1.44-1.43 1.44h-.45c.29.57.46 1.22.52 1.92.1 1.1.1 2.21 0 3.34a4.95 4.95 0 0 1-1.73 3.46 5.68 5.68 0 0 1-3.87 1.34c-.72 0-1.4-.1-2.01-.3 0 0-.86.53-.74 1.53.11.89 1 1.18 1 1.18 1.1-.62 2.4-.98 3.8-.98 3.89 0 7.04 2.77 7.04 6.16V40h-3v-.06c0-1.73-1.81-3.14-4.03-3.14-2.23 0-4.03 1.41-4.03 3.14V40h-3l-.01-.06c0-1.05.3-2.04.84-2.91a4.75 4.75 0 0 1-1.6-2.66c-.2-.8-.31-2.43 1.13-4.14ZM44.91 21.23c0 .73-.56 1.49-1.48 1.49-.16 0-.45-.05-.82-.12a3.6 3.6 0 0 0-.8-.1h-.14c-.83.03-1.23.55-1.23 1.54v6.77c0 .92-.7 1.6-1.57 1.6a1.6 1.6 0 0 1-1.58-1.6v-7.36c0-2.48 1.49-4.04 4.14-4.04a9 9 0 0 1 2.02.19c.97.26 1.46.8 1.46 1.63ZM67.03 29.4a1.43 1.43 0 0 0-.88-.29c-.16 0-.35.02-.54.07a6.3 6.3 0 0 1-1.45.26c-1.02 0-1.53-.6-1.53-1.75v-4.86h2.94c.77 0 1.46-.62 1.46-1.37 0-.83-.69-1.42-1.46-1.42h-2.94v-1.6c0-.93-.7-1.66-1.58-1.66-.87 0-1.57.73-1.57 1.65v9.33c0 2.81 1.43 4.66 4.23 4.66 1.2 0 2.14-.17 2.87-.5.66-.3.98-.76.98-1.4.03-.47-.16-.84-.53-1.13ZM79.84 19.92c-.28-.3-.66-.47-1.1-.47 0 .02 0 .02-.03.02-.47 0-.87.2-1.2.55l-3.64 3.77c-.36.36-.73.55-1.18.55h-.26v-7.42c0-.92-.7-1.63-1.57-1.63-.87 0-1.58.71-1.58 1.63v13.87c0 .87.73 1.63 1.58 1.63.91 0 1.57-.71 1.57-1.63v-3.45h.3c.43 0 .8.19 1.14.54l3.69 4a1.58 1.58 0 0 0 2.77-1.03c0-.44-.16-.87-.5-1.22l-3.7-3.87 3.73-3.71c.57-.55.57-1.44-.02-2.13ZM53.95 23.05a4.24 4.24 0 0 0-2.33-.62c-1.5 0-2.33.78-2.45 2.37-.02.47-.02 1.52 0 2.4.08 1.44.85 2.31 2.26 2.31.99 0 1.84-.24 2.52-.7v-5.76Zm3.15-1.73V30.78c0 .92-.67 1.64-1.56 1.64-.6 0-1.11-.22-1.38-.73l-.21.11c-.87.4-1.83.62-2.85.62-3 0-4.8-1.82-5.05-4.68-.1-1.02-.1-2.4 0-3.42a5.22 5.22 0 0 1 1.64-3.54 5.33 5.33 0 0 1 3.79-1.37c1.07 0 2.06.28 2.97.69.28-.24.63-.39 1.03-.39.87 0 1.62.73 1.62 1.6ZM89.24 23.05a4.24 4.24 0 0 0-2.33-.62c-1.5 0-2.33.78-2.44 2.37-.03.47-.03 1.52 0 2.4.07 1.44.84 2.31 2.25 2.31.99 0 1.84-.24 2.52-.7v-5.76Zm3.15-1.73V30.78c0 .92-.67 1.64-1.56 1.64-.59 0-1.11-.22-1.38-.73l-.21.11c-.87.4-1.83.62-2.85.62-3 0-4.8-1.82-5.05-4.68-.1-1.02-.1-2.4 0-3.42a5.22 5.22 0 0 1 1.64-3.54 5.33 5.33 0 0 1 3.79-1.37c1.07 0 2.06.28 2.97.69.28-.24.63-.39 1.03-.39.87 0 1.62.73 1.62 1.6Z"/>
</svg>
