<svg xmlns="http://www.w3.org/2000/svg" xmlns:xlink="http://www.w3.org/1999/xlink" width="119" height="119">
  <defs>
    <rect id="a" width="118" height="118" x=".91" y=".16" rx="59"/>
  </defs>
  <g fill-rule="evenodd">
    <mask id="b" fill="#fff">
      <use xlink:href="#a"/>
    </mask>
    <use xlink:href="#a" fill="#d8d8d8"/>
    <path fill="#ccc" fill-rule="nonzero" d="M-16 0h158v117H-16z" mask="url(#b)"/>
    <g fill="#208924" mask="url(#b)">
      <path d="m-10.28 116.26 97.9 4.8 13.7-18.9-13.7-14.4L77.5 98.89l-79.65-77.9z"/>
    </g>
    <path fill="#fff" d="m2.37 73.27 4.42 1.82a1261.8 1261.8 0 0 0 21.68 8.43l-14.44 32.74h4.2l13.84-31.39 23.18 8.78-12.35 22.6h4.4l11.6-21.23 33.37 12.5-1.68 8.74h7.86l1.15-6 16.06 6h26l6.32-10.41 10.95-35.69-46.4-24.42 18.75-43.68h-8.39l-17.17 39.95L62.16 18 71.2.9h-4.42l-7.97 15.25L37.17 4.5 27.84 7.9 5.24 66.03l-4.3-1.78 1.43 9.02zm108.11-19.84L155.4 78.2l-9.58 20.21-40.32-19.03 4.98-25.94zm33.7 48.44-6.75 14.27-36.37-13.57 3.7-19.31 39.43 18.6zM103.37 49.5l-9.63 50.32-13.34-4.98 17.13-48.56 5.84 3.22zm-9.27-5.1L76.78 93.5 35.19 77.8l23.37-52.98L94.1 44.4zM31.23 9.77l23.95 13.2L38.95 59.7l-21.47-14.6L31.23 9.77zM16.06 48.81l21.32 14.48-5.8 13.13-21.9-8.5c-.3-.14-.6-.27-.93-.39l7.31-18.72z" mask="url(#b)"/>
    <circle cx="60" cy="59" r="32" fill="#0058b2" mask="url(#b)"/>
    <g fill="#fff" fill-rule="nonzero" mask="url(#b)">
      <path d="M67.98 49.79c.59-1.36 1.01-2.61 1.01-3.46A5.34 5.34 0 0 0 63.66 41a5.34 5.34 0 0 0-5.33 5.33c0 .72.3 1.73.75 2.84l-6.07-1.52L43 49.1v22.67l9.95-1.42L63.62 73l11.37-1.42V48.9l-7.01.88zm5.68.63v9.99l-9.33 1.16v-5.05l2.98-5.3 6.35-.8zm-20 10.1L63 62.85v8.62l-9.32-2.33v-8.62zm10-18.19a4 4 0 0 1 4 4c0 .83-.6 2.34-1.38 3.94l-.02.03-2.6 4.75-2.82-5.19-.1-.23c-.63-1.36-1.08-2.58-1.08-3.3a4 4 0 0 1 4-4zm-.67 14.19v4.95l-9.32-2.32v-9.96l6.1 1.52a65.7 65.7 0 0 0 3.22 5.81zM52.33 49.1v9.98l-8 1.15v-9.99l8-1.14zm-8 12.47 8-1.14v8.65l-8 1.14v-8.65zm20 10v-8.65l9.33-1.17v8.65l-9.33 1.17zM63.66 49a2.67 2.67 0 0 0 2.67-2.67 2.67 2.67 0 0 0-2.67-2.66 2.67 2.67 0 0 0-2.67 2.66A2.67 2.67 0 0 0 63.66 49zm0-4a1.33 1.33 0 1 1 0 2.67 1.33 1.33 0 0 1 0-2.67z"/>
    </g>
  </g>
</svg>
