<svg xmlns="http://www.w3.org/2000/svg" width="82" height="32" fill="none" class="header__image header__image--partner">
  <path fill="#1E1E1E" fill-rule="evenodd" d="M58.25 17.31V14.4l-2.43.59v2.32h-1.39v2.32h1.39v4.08c-.05 1.25.26 2.17.98 2.62.9.57 2.22.67 3.89.44v-2.28c-1.71.19-2.27.15-2.43-.72v-4.14h2.54v-2.32h-2.55Zm-9.1 7.32c-1.34 0-2.44-.72-2.48-1.63h7.21v-.06c0-.96-.06-2.2-.44-3.11a4.73 4.73 0 0 0-4.4-2.87A4.97 4.97 0 0 0 44 22.02c0 2.85 2.2 5.05 5.04 5.05 1.9 0 3.42-.8 4.22-2.02l-1.98-1.14h-.07c-.45.43-1.2.72-2.05.72Zm-2.19-4.41c.46-.6 1.2-1.05 1.98-1.05.87 0 1.64.4 2.07 1.12.1.15.18.4.27.75h-4.63c.07-.37.17-.64.31-.82ZM27.84 27a5.05 5.05 0 1 0-.01-10.1 5.05 5.05 0 0 0 .01 10.1Zm.12-2.38a2.61 2.61 0 1 0-.01-5.22 2.61 2.61 0 0 0 0 5.22Zm8.28-7.51h-2.32l.01 9.6h2.6v-6.16c1.07-1.44 2.5-1.44 3.35-.79.24.19.41.79.41.79v6.16h2.67v-6.39c-.33-2.12-1.55-3.36-3.59-3.36-2.4 0-3.13 1.15-3.13 1.15v-1Z" clip-rule="evenodd"/>
  <circle cx="9.5" cy="22" r="9.5" fill="#FFD200"/>
  <path fill="#012" d="M.99 7.56a.45.45 0 0 1-.34-.12.5.5 0 0 1-.11-.35V3.02c0-.15.04-.26.12-.34.08-.08.19-.12.33-.12h1.7c.53 0 .95.14 1.24.41.3.27.44.65.44 1.14 0 .48-.14.86-.44 1.14-.29.27-.7.4-1.25.4H1.43V7.1a.5.5 0 0 1-.1.35c-.08.08-.2.12-.34.12Zm.45-2.61h1.1c.32 0 .56-.08.72-.21.17-.15.25-.36.25-.63 0-.28-.08-.49-.25-.63-.16-.14-.4-.2-.72-.2h-1.1v1.67Zm4.2 2.6a.45.45 0 0 1-.27-.07.31.31 0 0 1-.12-.2.53.53 0 0 1 .05-.3l1.85-4.1a.66.66 0 0 1 .21-.28.52.52 0 0 1 .6 0c.08.06.16.15.22.29l1.85 4.1c.05.1.07.2.06.29a.32.32 0 0 1-.12.2.44.44 0 0 1-.26.08.48.48 0 0 1-.3-.1.86.86 0 0 1-.2-.29l-.45-1.06.37.25H6.18l.38-.25-.45 1.06a.91.91 0 0 1-.19.3c-.06.06-.16.09-.28.09Zm2.01-4.01-.98 2.33-.18-.23h2.34l-.18.23-.99-2.33Zm4.6 4.02a.45.45 0 0 1-.34-.12.5.5 0 0 1-.1-.35V3.02c0-.15.03-.26.11-.34.08-.08.2-.12.34-.12h1.68c.54 0 .96.14 1.26.4.3.25.44.62.44 1.08 0 .3-.07.57-.2.79-.14.22-.33.38-.58.5-.25.12-.56.17-.92.17l.07-.1h.23c.19 0 .35.05.5.14.14.1.27.24.37.44l.53.97c.05.1.08.2.07.3 0 .08-.04.16-.1.22-.07.06-.16.09-.29.09a.56.56 0 0 1-.3-.08.72.72 0 0 1-.22-.25l-.7-1.3a.66.66 0 0 0-.3-.32.97.97 0 0 0-.44-.08h-.66v1.56a.5.5 0 0 1-.11.35c-.08.08-.2.12-.34.12Zm.45-2.7h1.09c.32 0 .56-.06.73-.2.17-.13.25-.33.25-.6 0-.26-.08-.45-.25-.58-.17-.14-.4-.2-.73-.2h-1.1v1.58Zm6.4 2.7a.45.45 0 0 1-.33-.12.5.5 0 0 1-.12-.35V3.31H17.3a.4.4 0 0 1-.29-.1.4.4 0 0 1-.1-.27c0-.13.04-.22.1-.28a.4.4 0 0 1 .29-.1h3.62c.13 0 .22.04.28.1.07.06.11.15.11.28 0 .11-.04.2-.1.28-.07.06-.16.1-.29.1h-1.36v3.77a.5.5 0 0 1-.11.35c-.08.08-.19.12-.34.12Zm4.13 0a.43.43 0 0 1-.31-.12c-.07-.07-.1-.18-.1-.32V2.96c0-.15.03-.26.1-.33a.38.38 0 0 1 .28-.12c.11 0 .19.02.24.06.06.04.12.1.2.2l2.68 3.48h-.18V2.94c0-.14.03-.24.1-.32a.43.43 0 0 1 .32-.11c.13 0 .23.04.3.11.07.08.11.18.11.32v4.2c0 .13-.03.23-.1.3a.34.34 0 0 1-.26.12c-.11 0-.2-.02-.26-.07a1.03 1.03 0 0 1-.2-.2l-2.68-3.48h.17v3.31c0 .14-.03.25-.1.32-.07.08-.17.12-.3.12Zm6.3-.06a.5.5 0 0 1-.36-.12.5.5 0 0 1-.12-.36V3.04c0-.15.04-.27.12-.35.08-.08.2-.13.35-.13h2.5c.12 0 .2.04.27.1.06.06.1.14.1.25 0 .12-.04.21-.1.28-.06.06-.15.09-.27.09h-2.11v1.36h1.96c.12 0 .21.03.27.09.06.06.1.15.1.26 0 .12-.04.2-.1.27-.06.06-.15.1-.27.1H29.9v1.43h2.11c.12 0 .2.03.27.09.06.06.1.15.1.26 0 .12-.04.2-.1.27-.06.06-.15.09-.27.09h-2.5Zm5.14.06a.45.45 0 0 1-.33-.12.5.5 0 0 1-.12-.35V3.02c0-.15.04-.26.12-.34.08-.08.2-.12.34-.12h1.69c.54 0 .96.14 1.25.4.3.25.44.62.44 1.08 0 .3-.07.57-.2.79-.13.22-.32.38-.58.5-.25.12-.55.17-.91.17l.06-.1h.23c.2 0 .36.05.5.14.14.1.27.24.38.44l.52.97c.06.1.08.2.08.3 0 .08-.04.16-.1.22-.07.06-.17.09-.3.09a.56.56 0 0 1-.3-.08.72.72 0 0 1-.21-.25l-.7-1.3a.66.66 0 0 0-.31-.32.97.97 0 0 0-.43-.08h-.67v1.56a.5.5 0 0 1-.11.35c-.08.08-.19.12-.34.12Zm.45-2.7h1.1c.31 0 .56-.06.72-.2.17-.13.25-.33.25-.6 0-.26-.08-.45-.25-.58-.16-.14-.4-.2-.73-.2h-1.09v1.58Zm9.5 2.71a3.91 3.91 0 0 1-1.2-.18 2.39 2.39 0 0 1-.48-.24.45.45 0 0 1-.21-.43.43.43 0 0 1 .09-.2c.05-.07.11-.1.19-.12.07-.01.15 0 .24.06.2.13.43.21.65.27.23.06.47.08.72.08.37 0 .64-.06.81-.18a.58.58 0 0 0 .25-.48c0-.16-.06-.3-.18-.39-.12-.09-.32-.17-.6-.23l-.78-.16c-.44-.1-.77-.25-1-.47a1.22 1.22 0 0 1-.32-.88 1.37 1.37 0 0 1 .54-1.1c.17-.14.37-.24.6-.31a2.97 2.97 0 0 1 1.58 0c.26.06.49.16.69.3.07.05.12.11.14.19.03.07.04.15.02.22a.35.35 0 0 1-.1.18.32.32 0 0 1-.19.1.43.43 0 0 1-.26-.08 2 2 0 0 0-1.1-.27c-.21 0-.4.03-.55.1a.8.8 0 0 0-.36.25.63.63 0 0 0-.12.39c0 .16.06.3.17.4.11.1.3.18.58.23l.76.16c.46.1.8.26 1.03.47.23.2.34.49.34.84a1.32 1.32 0 0 1-.53 1.07c-.17.13-.37.23-.61.3-.24.08-.5.11-.8.11Zm4.2-.07a.5.5 0 0 1-.36-.12c-.08-.08-.12-.2-.12-.36V3.04c0-.15.04-.27.12-.35.08-.08.2-.13.36-.13h2.5c.11 0 .2.04.26.1.07.06.1.14.1.25 0 .12-.03.21-.1.28-.06.06-.15.09-.27.09h-2.1v1.36h1.95c.12 0 .21.03.27.09.06.06.1.15.1.26 0 .12-.04.2-.1.27-.06.06-.15.1-.27.1H49.2v1.43h2.11c.12 0 .21.03.27.09.07.06.1.15.1.26 0 .12-.03.2-.1.27-.06.06-.15.09-.27.09h-2.5Zm5.14.06a.45.45 0 0 1-.33-.12.5.5 0 0 1-.11-.35V3.02c0-.15.04-.26.12-.34.07-.08.19-.12.33-.12h1.69c.54 0 .96.14 1.25.4.3.25.44.62.44 1.08 0 .3-.07.57-.2.79-.13.22-.32.38-.57.5-.26.12-.56.17-.92.17l.06-.1h.23c.2 0 .36.05.5.14.14.1.27.24.38.44l.52.97c.06.1.08.2.08.3 0 .08-.04.16-.1.22-.07.06-.17.09-.3.09a.56.56 0 0 1-.3-.08.72.72 0 0 1-.21-.25l-.7-1.3a.66.66 0 0 0-.3-.32.97.97 0 0 0-.44-.08h-.67v1.56a.5.5 0 0 1-.1.35c-.08.08-.2.12-.35.12Zm.45-2.7h1.1c.32 0 .56-.06.72-.2.17-.13.25-.33.25-.6 0-.26-.08-.45-.25-.58-.16-.14-.4-.2-.73-.2h-1.09v1.58Zm6.55 2.7a.5.5 0 0 1-.3-.1.64.64 0 0 1-.19-.28l-1.46-4.14c-.05-.15-.04-.27.03-.38.07-.1.2-.15.37-.15.12 0 .22.03.3.09.06.06.12.15.16.27l1.26 3.74h-.28l1.32-3.73c.04-.13.1-.22.17-.28a.4.4 0 0 1 .27-.1c.12 0 .2.04.27.1.07.06.12.16.17.29l1.27 3.72h-.24l1.28-3.74c.04-.12.1-.2.17-.27.07-.06.16-.1.28-.1.15 0 .26.06.33.16s.08.23.03.38l-1.48 4.14a.64.64 0 0 1-.18.29.46.46 0 0 1-.3.09.46.46 0 0 1-.3-.1.64.64 0 0 1-.18-.28L62.5 3.7h.16l-1.23 3.47a.64.64 0 0 1-.18.29.43.43 0 0 1-.3.09Zm7.5 0a.45.45 0 0 1-.33-.12.5.5 0 0 1-.11-.35V2.97c0-.15.04-.26.11-.34.08-.08.2-.12.34-.12s.25.04.33.12c.08.08.12.2.12.34V7.1a.5.5 0 0 1-.12.35c-.07.08-.18.12-.33.12Zm4.24.01a3.91 3.91 0 0 1-1.2-.18 2.39 2.39 0 0 1-.5-.24.45.45 0 0 1-.2-.43.43.43 0 0 1 .09-.2c.05-.07.11-.1.19-.12.07-.01.16 0 .24.06.2.13.43.21.66.27.22.06.46.08.72.08.36 0 .63-.06.8-.18a.58.58 0 0 0 .25-.48c0-.16-.06-.3-.18-.39-.12-.09-.32-.17-.6-.23l-.78-.16c-.44-.1-.77-.25-1-.47a1.22 1.22 0 0 1-.31-.88 1.37 1.37 0 0 1 .53-1.1c.17-.14.37-.24.6-.31a2.97 2.97 0 0 1 1.58 0c.26.06.49.16.69.3a.41.41 0 0 1 .17.41.35.35 0 0 1-.1.18.32.32 0 0 1-.2.1.43.43 0 0 1-.26-.08 2 2 0 0 0-1.1-.27c-.21 0-.4.03-.55.1a.8.8 0 0 0-.36.25.63.63 0 0 0-.11.39c0 .16.05.3.16.4.12.1.3.18.58.23l.76.16c.46.1.8.26 1.03.47.23.2.34.49.34.84a1.32 1.32 0 0 1-.53 1.07c-.17.13-.37.23-.6.3-.25.08-.52.11-.81.11Zm5.76 0a2.8 2.8 0 0 1-.9-.13 1.72 1.72 0 0 1-.65-.4c-.18-.17-.31-.4-.4-.65a2.83 2.83 0 0 1-.13-.91V2.96c0-.15.03-.26.1-.34.09-.07.2-.11.34-.11.15 0 .26.04.33.11.08.08.12.19.12.34v2.51c0 .44.1.78.3 1 .2.22.5.33.9.33.38 0 .67-.11.87-.33.2-.22.3-.56.3-1v-2.5c0-.16.04-.27.12-.35.08-.07.19-.11.33-.11s.25.04.33.11c.07.08.11.19.11.34v2.52c0 .45-.08.84-.23 1.15-.16.31-.39.55-.7.7-.3.16-.69.24-1.14.24Z"/>
</svg>
