<svg xmlns="http://www.w3.org/2000/svg" width="80" height="25" fill="none" class="footer__servicePartnerLogo">
  <g fill="#185F7D" fill-rule="evenodd" clip-path="url(#a)" clip-rule="evenodd">
    <path d="M36.82 24.75h1.67v-9.62h-1.67v9.62ZM6.67 24.75h1.67v-9.62H6.67v9.62ZM43.38 15.13v9.62h3.78c2.91 0 4.8-1.88 4.8-4.82 0-2.92-1.89-4.8-4.8-4.8h-3.78Zm1.67 1.44h2.05c2.07 0 3.18 1.3 3.18 3.36 0 2.06-1.11 3.36-3.18 3.36h-2.05v-6.72ZM55.49 15.13v9.62h5.97v-1.46h-4.34v-2.98h3.9v-1.43h-3.9v-2.31h4.34v-1.44H55.5ZM66.46 15.13v9.62h1.67v-3.9h1.18l3.44 3.9h1.9l-3.55-3.97c1.56-.23 2.29-1.16 2.29-2.77 0-1.88-1.32-2.88-3.36-2.88h-3.57Zm1.67 1.4H70c1.11 0 1.74.59 1.74 1.48 0 .9-.63 1.47-1.74 1.47h-1.87v-2.94ZM22.62 2.77c0 1.6 1 2.3 2.33 2.79l1.45.5c.89.34 1.39.64 1.39 1.4 0 .88-.8 1.28-1.93 1.28a5.06 5.06 0 0 1-3.15-1.13v1.73c.7.48 1.82.86 3.15.86 2.02 0 3.56-.98 3.56-2.76 0-1.42-.71-2.28-2.26-2.84l-1.6-.57c-.83-.29-1.3-.57-1.3-1.3 0-.79.74-1.17 1.75-1.17 1.16 0 2.07.43 2.9 1.05V.91C28.1.4 27.08.1 25.96.1c-1.82 0-3.35.94-3.35 2.66ZM73.2 2.76c0 1.61 1 2.31 2.33 2.79l1.44.5c.9.34 1.4.65 1.4 1.41 0 .88-.8 1.27-1.93 1.27a5.06 5.06 0 0 1-3.16-1.13v1.74c.7.48 1.83.86 3.16.86 2.02 0 3.56-.99 3.56-2.77 0-1.42-.71-2.28-2.27-2.83l-1.6-.58c-.82-.29-1.3-.57-1.3-1.29 0-.8.75-1.18 1.75-1.18 1.17 0 2.08.43 2.9 1.05V.9c-.8-.5-1.81-.8-2.93-.8-1.83 0-3.35.94-3.35 2.66ZM63.04 2.76c0 1.61 1 2.31 2.33 2.79l1.44.5c.89.34 1.4.65 1.4 1.41 0 .88-.8 1.27-1.93 1.27a5.06 5.06 0 0 1-3.16-1.13v1.74c.7.48 1.83.86 3.16.86 2.02 0 3.56-.99 3.56-2.77 0-1.42-.72-2.28-2.27-2.83l-1.6-.58c-.83-.29-1.3-.57-1.3-1.29 0-.8.75-1.18 1.75-1.18 1.17 0 2.07.43 2.9 1.05V.9c-.8-.5-1.82-.8-2.93-.8-1.83 0-3.35.94-3.35 2.66ZM53.18.27v9.78h6.02V8.57h-4.37V5.53h3.92V4.1h-3.92V1.73h4.37V.27h-6.02ZM0 .27v9.78h3.8c2.08 0 3.37-.98 3.37-2.8C7.17 6.2 6.49 5.3 5.55 5c.73-.26 1.3-1.02 1.3-2.07 0-1.75-1.3-2.66-3.37-2.66H0ZM1.63 1.7h1.83c1.15 0 1.77.4 1.77 1.33 0 .92-.62 1.35-1.77 1.35H1.63V1.7Zm0 4.05h2.14c1.13 0 1.75.54 1.75 1.43 0 .88-.62 1.43-1.75 1.43H1.63V5.75ZM33.75 10.05h1.69V.27h-1.69v9.78ZM17.06.27v5.7c0 1.88-.81 2.75-2.3 2.75-1.49 0-2.3-.87-2.3-2.75V.27h-1.68v5.87c0 2.7 1.62 4.06 3.98 4.06 2.38 0 3.98-1.36 3.98-4.04V.27h-1.68ZM47.07.27v6.25L40.24.12v9.93h1.62V3.69l6.82 6.5V.28h-1.61ZM13.14 24.75h1.6v-6.26l6.78 6.4v-9.76h-1.6v6.15l-6.78-6.3v9.77ZM25.74 17.58c0 1.58 1 2.27 2.32 2.74l1.42.5c.88.33 1.39.63 1.39 1.38 0 .86-.8 1.25-1.92 1.25-1.15 0-2.23-.4-3.13-1.11v1.71c.7.47 1.82.84 3.13.84 2 0 3.54-.96 3.54-2.72 0-1.4-.71-2.24-2.25-2.79l-1.59-.56c-.82-.29-1.29-.57-1.29-1.28 0-.78.75-1.15 1.74-1.15 1.15 0 2.05.42 2.87 1.03v-1.68c-.79-.5-1.8-.78-2.9-.78-1.82 0-3.33.92-3.33 2.62Z"/>
  </g>
  <defs>
    <clipPath id="a">
      <path fill="#fff" d="M0 .1h80v24.8H0z"/>
    </clipPath>
  </defs>
</svg>
