<svg xmlns="http://www.w3.org/2000/svg" width="80" height="21" fill="none" class="footer__servicePartnerLogo">
  <g fill="#233359" fill-rule="evenodd" clip-path="url(#a)" clip-rule="evenodd">
    <path d="M46.51 19.49c-.36 0-.82 0-1.1-.1-.09-1.28-.18-6.69-.09-11.46.55-.18.92-.27 1.38-.27 2.01 0 3.12 2.38 3.12 5.32 0 3.67-1.38 6.51-3.3 6.51Zm2.11-13.3c-1.28 0-2.29.27-3.3.82 0-2.93 0-5.6.1-6.51l-6.15 1.1v.55l.64.1c.82.18 1.1.64 1.28 1.74.19 2.2.1 13.94 0 15.87 1.65.36 3.4.64 5.14.64 4.86 0 7.8-3.03 7.8-7.8 0-3.76-2.39-6.51-5.5-6.51ZM16.15.87H0v.82l.92.1c1.19.18 1.65.91 1.83 2.65.28 3.3.19 9.27 0 12.11-.18 1.75-.64 2.57-1.83 2.66L0 19.4v.73h10.37v-.73l-1.1-.19c-1.2-.09-1.66-.91-1.84-2.66a74.9 74.9 0 0 1-.18-5.5l2.2.1c1.38 0 2.02 1.1 2.3 2.65h.82V7.3h-.83c-.27 1.56-.91 2.66-2.3 2.66l-2.2.1c0-3.13.1-6.06.2-7.8h3.2c2.48 0 3.76 1.55 4.68 4.3l.92-.27-.1-5.41Z"/>
    <path d="M21.1 6.92c-2.02 0-2.57 2.75-2.57 6.33 0 3.49.92 6.33 2.75 6.33 2.11 0 2.66-2.75 2.66-6.33 0-3.48-.91-6.33-2.84-6.33Zm.28-.92c4.58 0 6.88 3.12 6.88 7.25 0 3.95-2.57 7.25-7.16 7.25s-6.88-3.12-6.88-7.25c0-3.94 2.57-7.25 7.16-7.25ZM59.54 11.6l4.31-.1c0-1.83-.27-4.58-1.83-4.58s-2.39 2.57-2.48 4.68Zm-4.22 1.74c0-3.76 2.39-7.34 7.06-7.34 3.86 0 5.7 2.85 5.7 6.61h-8.54c-.1 3.4 1.56 5.87 4.86 5.87 1.47 0 2.2-.37 3.12-1l.37.45a6.88 6.88 0 0 1-5.5 2.57c-4.13 0-7.07-2.94-7.07-7.16ZM78.99 6.74c-1.1-.46-2.57-.74-4.22-.74-3.4 0-5.5 2.02-5.5 4.4 0 2.4 1.55 3.4 3.76 4.14 2.29.82 2.93 1.46 2.93 2.57 0 1.1-.82 2.1-2.3 2.1-1.73 0-3.02-1-4.03-3.76l-.64.19.1 4.03c1.1.46 3.11.83 4.85.83 3.58 0 5.88-1.84 5.88-4.68 0-1.93-1.01-3.03-3.4-3.94-2.57-1.01-3.49-1.66-3.49-2.85 0-1.2.83-2.02 1.93-2.02 1.65 0 2.75 1.01 3.58 3.49l.64-.18L79 6.74ZM40.18 6.37c-1.56-.92-4.3-.46-5.78 2.85L34.5 6l-6.15 1.2v.55l.64.09c.83.1 1.2.55 1.28 1.74a77 77 0 0 1 0 7.98c-.09 1.1-.45 1.65-1.28 1.75l-.64.09v.73h8.53v-.73l-1.1-.1c-.92-.09-1.2-.64-1.29-1.74a65.54 65.54 0 0 1-.09-7.43c.46-.64 2.48-1.19 4.31 0l1.47-3.76Z"/>
  </g>
  <defs>
    <clipPath id="a">
      <path fill="#fff" d="M0 .5h80v20H0z"/>
    </clipPath>
  </defs>
</svg>
