<svg xmlns="http://www.w3.org/2000/svg" width="80" height="13" fill="none" class="footer__servicePartnerLogo">
  <g fill="#E80404" clip-path="url(#a)">
    <path d="M72.55.34v7.3l2.38-3.42h3.6L75.56 8l3.16 4.44h-3.84l-2.33-3.76v3.76h-3.28V.34h3.28ZM39.17 4.22h3.27l.66 5.28 1.14-5.28h2.86l1.13 5.28.67-5.28h3.26l-2 8.23h-3.52l-.98-4.4-.97 4.4h-3.5l-2.02-8.23ZM39.63 10.03c0 1.64-1.45 2.65-3.98 2.65-2.73 0-3.99-.68-4.28-1.98-.07-.32-.09-.67-.09-.92h3.13c0 .09.01.3.08.43.12.26.39.41 1.06.41.68 0 .96-.2.96-.48 0-.32-.18-.48-1.04-.7l-1.7-.42c-1.61-.4-2.4-1.09-2.4-2.51 0-1.45 1.51-2.57 3.92-2.57 2.28 0 3.57.7 3.95 1.78.08.26.15.97.15 1.12h-3.06c0-.07-.03-.3-.06-.36-.09-.17-.37-.35-.89-.35-.67 0-.97.15-.97.42 0 .25.35.3.92.46l1.85.48c1.6.42 2.45 1.12 2.45 2.54ZM18.56 4.22h3.27l.67 5.28 1.13-5.28h2.86l1.13 5.28.67-5.28h3.27l-2.02 8.23h-3.5l-.99-4.4-.97 4.4h-3.5l-2.02-8.23ZM3.46.39l3.2 5.5V.4h3.52v12.05H6.76L3.48 6.91v5.53H0V.4h3.46ZM80 11.98c0 .3-.24.53-.53.53a.53.53 0 1 1 .53-.53Zm-.08 0c0-.24-.2-.44-.45-.44-.24 0-.44.2-.44.44a.44.44 0 1 0 .89 0ZM69.01 8.4c0 .24.01.48-.01.72h-5.3c0 .79.19 1.41 1.11 1.41.77 0 1.03-.4 1.03-.85h3.12c0 1.77-1.71 3-4.15 3-2.66 0-4.34-1.64-4.34-4.4 0-2.68 1.87-4.31 4.37-4.31 2.68 0 4.17 1.98 4.17 4.43Zm-3.17-.92c0-.76-.23-1.32-1.04-1.32-.84 0-1.12.56-1.12 1.32h2.16ZM60.18 8.4c0 .24 0 .48-.02.72h-5.3c0 .79.25 1.41 1.11 1.41.77 0 1.03-.4 1.03-.85h3.12c0 1.77-1.71 3-4.15 3-2.66 0-4.34-1.64-4.34-4.4 0-2.68 1.87-4.31 4.37-4.31 2.68 0 4.18 1.98 4.18 4.43ZM57 7.48c0-.76-.17-1.32-1.04-1.32-.83 0-1.12.56-1.12 1.32H57ZM19.07 8.4c0 .24 0 .48-.02.72h-5.32c0 .79.2 1.41 1.12 1.41.77 0 1.04-.4 1.04-.85h3.12c0 1.77-1.73 3-4.16 3-2.66 0-4.34-1.64-4.34-4.4 0-2.68 1.87-4.31 4.37-4.31 2.67 0 4.19 1.98 4.19 4.43Zm-3.18-.92c0-.76-.26-1.32-1.06-1.32-.81 0-1.12.56-1.12 1.32h2.18Z"/>
    <path d="M79.68 11.86c0 .07-.04.12-.13.15l.14.24h-.14l-.1-.22h-.08v.22h-.12v-.56h.21c.17 0 .22.08.22.17Zm-.12 0c0-.07-.05-.1-.13-.1h-.06v.2h.07c.08 0 .12-.04.12-.1ZM57.95.34h.72c.36 0 .54.18.54.42 0 .23-.16.44-.54.44h-.24v.42h-.48V.34Zm.63.59c.1 0 .16-.07.16-.16 0-.08-.05-.14-.16-.14h-.15v.3h.15ZM59.65 1.19V.78c0-.31.3-.46.66-.46.34 0 .66.12.66.46v.4c0 .33-.32.46-.66.46-.35 0-.66-.12-.66-.45Zm.84 0V.76c0-.1-.08-.14-.18-.14-.12 0-.18.05-.18.14v.43c0 .1.06.15.18.15s.18-.06.18-.15ZM61.45.34h.47v.98h.67v.3h-1.14V.34ZM62.95 1.46l.24-.23c.1.06.25.13.39.13.09 0 .16-.03.16-.08 0-.06-.07-.08-.15-.1l-.21-.07c-.23-.07-.35-.19-.35-.37 0-.23.23-.42.6-.42a1 1 0 0 1 .59.15l-.23.24a.75.75 0 0 0-.34-.12c-.1 0-.17.04-.17.1 0 .05.12.07.22.1l.18.07c.25.08.37.2.37.36 0 .3-.34.42-.66.42-.25 0-.49-.05-.64-.18ZM64.7.34h.48V.9l.41-.56h.46l-.39.5.4.78h-.52l-.23-.5-.13.14v.36h-.47V.34ZM66.85.34h.6l.47 1.28h-.49l-.07-.22h-.47l-.07.22h-.44l.47-1.28Zm.42.79L67.13.7l-.15.43h.29Z"/>
  </g>
  <defs>
    <clipPath id="a">
      <path fill="#fff" d="M0 .32h80v12.36H0z"/>
    </clipPath>
  </defs>
</svg>
