<svg xmlns="http://www.w3.org/2000/svg" width="80" height="25" fill="none" class="footer__servicePartnerLogo">
  <g fill-rule="evenodd" clip-path="url(#a)" clip-rule="evenodd">
    <path fill="#FBCE20" d="M25.06 12.5c0 6.9-5.61 12.5-12.53 12.5C5.6 25 0 19.4 0 12.5S5.6 0 12.53 0c6.92 0 12.53 5.6 12.53 12.5Z"/>
    <path fill="#1A1919" d="M36.7 19.1a6.55 6.55 0 0 1-6.63-6.61c0-3.7 2.9-6.6 6.62-6.6 3.73 0 6.65 2.9 6.65 6.6 0 3.7-2.92 6.6-6.65 6.6Zm0-10a3.25 3.25 0 0 0-3.33 3.39c0 1.97 1.4 3.4 3.32 3.4a3.26 3.26 0 0 0 3.35-3.4c0-1.97-1.4-3.4-3.35-3.4ZM53.21 18.75v-7.28c0-1.58-.9-2.52-2.43-2.52a3 3 0 0 0-2.7 1.73v8.07h-3.3V6.25h2.89v1.28c.77-1.06 2.48-1.65 4.09-1.65 1.33 0 2.53.48 3.37 1.35.9.93 1.38 2.26 1.38 3.84v7.68h-3.3ZM77.74 18.97c-1.45 0-2.55-.36-3.26-1.07-.7-.7-1.04-1.74-1.04-3.15V9.37h-1.79V6.25h1.8l.01-2.92 3.28-.78v3.7H80v3.12h-3.26v5.42c0 .49.28 1.11 1.62 1.11.6 0 1.6-.12 1.6-.12v2.93c-.75.16-1.56.26-2.22.26ZM64.83 19.1c-4.05 0-6.87-2.72-6.87-6.61a6.4 6.4 0 0 1 6.62-6.6c3.62 0 6.35 2.83 6.35 6.6 0 .43-.04.84-.13 1.33v.03h-9.38c.42 1.46 1.64 2.26 3.46 2.26 1.5 0 2.33-.75 2.62-1.07l2.7 1.5a6.35 6.35 0 0 1-5.37 2.56Zm2.79-7.82a2.98 2.98 0 0 0-3.04-2.43c-1.66 0-2.83.88-3.22 2.43h6.26Z"/>
  </g>
  <defs>
    <clipPath id="a">
      <path fill="#fff" d="M0 0h80v25H0z"/>
    </clipPath>
  </defs>
</svg>
